<?xml version="1.0"?>
<svg version="1.1" xmlns="http://www.w3.org/2000/svg" width="400px" height="200px" style="border: dashed 2px #aaa"><path fill="#092336" d="M95.12,121.32q0-4.32,2.56-8.56q-2.96-1.88-2.96-5.56q0-4.44,3.92-7.88q4.4-3.88,11.36-3.88q3.2,0,6.88,0.92q0.84,0.2,7.16,3.1t9.08,2.9q1.84,0,2.76-1.04q0.48-0.52,0.48-1.12t-0.52-1.08q-0.28-0.4-0.28-0.52t0.22-0.12t0.76,0.7t0.54,1.64t-1.26,1.8t-3.18,0.86q-3,0-9.32-2.9t-7.94-3.22t-3.7-0.32q-8.28,0-13.04,5.36q-0.56,0.6-1.32,2.42t-0.76,3.5q0,2.32,1.64,3.6q2.08-3.04,4.92-4.84t5.76-1.8q3.6,0,3.6,2.8q0,3.36-3.94,7.3t-7.3,3.94q-2.16,0-2.16-1.84q0-0.64,0.34-1.12t0.82-0.36l-0.08,0.92q0,0.6,1.84,0.6q2.72,0,5.74-2.8t3.66-5.48q0.16-0.6,0.16-1.08q0-1.8-2.3-1.8t-4.76,1.76t-4.62,4.64q0.16,0.08,1.24,0.32l2.4,0.08q1.76,0.08,1.76,0.4q0,0.56-1.68,0.56l-0.24,0q-2.44,0-4-0.6q-3.08,4.72-3.08,8.68q0,5.12,3.96,5.12q4.48,0,9.32-6.24l7.84-11.68q4.4-6.4,7.64-6.56l1.52,0.36q0.72,0.4,0.72,1.2t-0.4,0.8l-1.28-0.2q-2.76,0-7.08,5.96l-7.96,11.12q-5.12,5.96-9.8,5.96q-3.2,0-4.42-1.72t-1.22-5z M132.6468,115.52q0,1.4-2.68,4.68q-3.16,3.88-5.4,3.88l-0.64,0q-1.04,0-1.64-1.08q-0.48-0.76-0.48-1.68q0-2.4,3.5-6.74t5.66-4.34q2.04,0,2.04,2.16q0,0.56-0.2,1.44q0.04,0.12,0.76,0.12t2.2-0.76q-0.04,0.68-3.16,1.96q0.04,0.16,0.04,0.36z M130.0468,113.44q-1.36,0-3.86,3.2t-2.5,4.72t0.96,1.52q1.72,0,4.36-3.12t2.64-4.48q-0.64-0.36-1.6-1.84z M139.4136,113.6l3.88,0.04q2.32,0,3.32-0.12q0.04,0.04,0.04,0.12q0,0.6-3.16,1.16q-1.72,0.24-3.22,0.5t-1.92,0.26t-1.4-0.18t-0.98-0.78q0-0.4,0.34-0.68t0.58-0.28t0.48-0.04l1.04,0l1,0z M156.3404,123q-3.52,2.72-5.16,2.72q-0.88,0-1.3-0.86t-0.42-1.86q0-1.92,1.62-5.76t3.1-3.84q0.76,0,1.3,3t1.1,4.36q2.72-2.88,7.88-9.6q6.48-8.52,8.6-9.32q0.72-0.28,1.48-0.28t1.26,0.32t0.5,0.8q0,0.68-1.16,0.8q-1.4,0.76-4.32,3.68q-2.92,2.84-4.68,5.32q-4.28,5.96-8.8,9.72q2.24,3.32,7.04,3.32q0.52,0,1.56-0.08q11.12-1.04,15.76-9.64q1.88-3.44,1.88-6.8t-2.44-6.04q-1.96-2.2-4.26-2.72t-4.7-0.52q-6.16,0-11.36,2.84q-5.48,3-5.48,6.72q0,1,0.54,1.64t0.74,0.72l-0.24,0q-1.04-0.2-1.84-1.04q-0.88-1.04-0.88-2.2q0-4,5.02-6.88t11.78-2.88q3.12,0,6.4,0.72t5.96,3.44q3.08,3.2,3.08,7.24q0,3-1.76,6.2q-3.04,5.52-9.08,8.08q-4.84,2.04-10.44,2.04t-8.28-3.36z M150.9004,122.84q0,1.24,0.48,2.16q1.72-0.76,4.16-3.16q-1.16-1.92-1.46-3.02t-0.42-2.9q-2.76,3.96-2.76,6.92z M156.6204,111.64q0.04,0,0.08-0.04q0,0.08-0.02,0.08t-0.06-0.04z M197.9072,115.52q0,1.4-2.68,4.68q-3.16,3.88-5.4,3.88l-0.64,0q-1.04,0-1.64-1.08q-0.48-0.76-0.48-1.68q0-2.4,3.5-6.74t5.66-4.34q2.04,0,2.04,2.16q0,0.56-0.2,1.44q0.04,0.12,0.76,0.12t2.2-0.76q-0.04,0.68-3.16,1.96q0.04,0.16,0.04,0.36z M195.3072,113.44q-1.36,0-3.86,3.2t-2.5,4.72t0.96,1.52q1.72,0,4.36-3.12t2.64-4.48q-0.64-0.36-1.6-1.84z"/><path fill="#" d="M236.216,113.58l0-13.16l-2.66,0l-0.7,2.66l-2.576,0l0-6.02l16.24,0l0,6.02l-2.604,0l-0.7-2.66l-2.66,0l0,13.16l2.66,0.84l0,2.38l-9.66,0l0-2.38z M259.27428,116.8l-0.504-1.82s-2.156,2.1-4.536,2.1c-2.716,0-4.368-1.596-4.368-4.396c0-3.304,2.492-4.62,6.748-4.62l1.96,0l0-1.54c0-1.428-0.756-2.044-2.156-2.044c-1.428,0-2.464,0.42-2.464,0.42l-0.42,1.764l-2.52,0l-0.196-4.144s3.388-1.12,6.076-1.12c4.256,0,5.88,1.484,5.88,5.544l0,6.916l2.1,0.504l0,2.24z M258.57428,110.444l-1.596,0c-2.184,0-3.052,0.56-3.052,1.82c0,1.064,0.588,1.68,1.652,1.68c1.484,0,2.996-1.624,2.996-1.624l0-1.876z M294.62456,114.56l0,2.24l-7.588,0l0-2.24l1.484-0.7l0-6.664c0-1.54-0.448-2.296-1.624-2.296c-1.82,0-3.108,1.456-3.108,1.456l0,7.504l1.456,0.7l0,2.24l-7.112,0l0-2.24l1.456-0.7l0-6.664c0-1.54-0.392-2.296-1.596-2.296c-1.82,0-3.136,1.456-3.136,1.456l0,7.504l1.484,0.7l0,2.24l-7.84,0l0-2.24l2.156-0.7l0-9.1l-2.128-0.7l0-2.24l5.852-0.14l0.196,1.988s2.436-2.268,4.9-2.268c1.988,0,3.22,0.924,3.864,2.408c0.476-0.476,2.576-2.408,5.068-2.408c2.94,0,4.312,1.904,4.312,5.04l0,7.42z M311.91484,110.164l-9.296,0c0.168,2.24,1.456,3.556,3.388,3.556c2.324,0,4.704-1.316,4.704-1.316l1.204,2.324s-2.8,2.352-6.384,2.352c-4.816,0-7.28-2.8-7.28-7.56c0-4.9,2.772-8.12,7.476-8.12c4.172,0,6.356,2.576,6.356,6.58c0,1.064-0.168,2.1-0.168,2.184z M302.67484,107.56l5.068,0c0-1.596-0.672-2.8-2.296-2.8c-1.568,0-2.548,1.148-2.772,2.8z M321.86912,101.68l0.252,1.932s2.016-2.212,3.892-2.212c1.54,0,2.604,0.504,2.604,0.504l-0.224,5.376l-2.52,0l-0.42-2.38c-1.624,0-3.024,1.568-3.024,1.568l0,7.392l2.8,0.7l0,2.24l-9.24,0l0-2.24l2.24-0.7l0-9.1l-2.24-0.7l0-2.24z"/></svg>
